<?xml version="1.0" encoding="utf-8"?>
<!-- Generator: Adobe Illustrator 19.2.1, SVG Export Plug-In . SVG Version: 6.00 Build 0)  -->
<svg version="1.1" id="layer" xmlns="http://www.w3.org/2000/svg" xmlns:xlink="http://www.w3.org/1999/xlink" x="0px" y="0px"
	 viewBox="0 0 652 652" style="enable-background:new 0 0 652 652;" xml:space="preserve">
<style type="text/css">
	.st0{fill:#FFFFFF;}
	.st1{fill:#005596;}
	.st2{fill:#FFCF01;}
	.st3{fill:#58595B;}
</style>
<path class="st0" d="M119.1,426.6c-114.8-44.7-79-197.3-79-197.3c20.7-10.9,67.7-14.8,79-14.8s58.3,3.9,79,14.8
	C198.1,229.4,233.9,381.9,119.1,426.6z"/>
<path class="st1" d="M202.9,228.2l-0.5-2.2l-2-1c-21.9-11.5-70.2-15.4-81.3-15.4s-59.4,3.9-81.3,15.4l-2,1l-0.5,2.2
	c-5.7,27.5-6.9,55.7-3.6,83.6c3.3,26.1,10.8,48.9,22.5,67.7c14.8,23.7,36,41.1,63.1,51.7l1.8,0.7l1.8-0.7
	c27.2-10.6,48.4-28,63.1-51.7c11.7-18.8,19.3-41.6,22.5-67.7C209.8,284,208.6,255.7,202.9,228.2z M119.1,426.7
	c-114.8-44.7-79-197.3-79-197.3c20.7-10.9,67.7-14.8,79-14.8s58.3,3.9,79,14.8C198.1,229.4,233.9,381.9,119.1,426.7L119.1,426.7z"/>
<path class="st1" d="M47.3,341.8c5,17.3,13.6,33.4,25.3,47.1l-9.5-52.2C56.1,338.7,50.6,340.6,47.3,341.8L47.3,341.8z"/>
<path class="st1" d="M95.8,300.3l15.3-79.6c-15.9,1.1-31.7,3.4-47.2,6.8l12.8,75.8C83.2,302,89.5,301,95.8,300.3L95.8,300.3z
	 M91.6,257.3c0,2,0.4,3.7,0.9,3.9c-1,0.7-1.9,1.4-2.8,2.1c-0.6,0.6-3.4,4-3.4,4s-2.8-3.3-3.4-4c-0.9-0.8-1.8-1.5-2.8-2.1
	c0.5-0.2,0.9-1.9,0.9-3.9c0-2.4-1.4-4.6-3.4-4.6c-3,0-3.4,2-3.4,2s-2.7-2.6-2.7-5.1c0-5.7,3-5.3,4.4-5.3c3,0,7.2,4.7,7.2,4.7
	c-0.5-1-1.2-2.9-1.5-3.4c-0.1-0.2-0.2-0.5-0.3-0.8c-0.7-1.7-0.7-3.5-0.1-5.2c0.7-2.2,2.2-3.1,3.4-4.6c1.2-1.5,1.8-2.1,1.8-2.1
	s0.5,0.5,1.8,2.1s2.7,2.5,3.4,4.6c0.6,1.7,0.6,3.6-0.1,5.2c-0.1,0.3-0.2,0.6-0.3,0.8c-0.2,0.6-1,2.4-1.5,3.4c0,0,4.1-4.7,7.2-4.7
	c1.3,0,4.4-0.4,4.4,5.3c0,2.5-2.7,5.1-2.7,5.1s-0.4-2-3.4-2C93.1,252.7,91.6,254.9,91.6,257.3z"/>
<path class="st1" d="M59.6,316.5c2.9-0.8,5.7-1.5,8.5-2.1l0.7-0.2l3.7-0.8h0.2l0.9-0.2l4.6-0.9h0.2l0,0c5.2-1,10.4-1.8,15.4-2.4l0,0
	l0.1-0.7l1.2-6.4c-5.9,0.7-12.1,1.6-18.3,2.8c-6.2,1.2-12.6,2.7-18.8,4.3c-5.8,1.6-11.5,3.3-16.7,5h-0.1c0.2,1.3,0.5,3.8,1.1,6.7
	c5.3-1.8,11.2-3.5,16.9-5L59.6,316.5z"/>
<path class="st1" d="M81.6,332.3l3.7,22.3l4.5-23.7C87.2,331.3,84.5,331.7,81.6,332.3L81.6,332.3z"/>
<path class="st1" d="M65.4,324.7h0.2l4.3-1.1h0.3c1.5-0.4,3-0.7,4.5-1h0.3c1.6-0.4,3.3-0.7,4.8-1c4.2-0.9,8.3-1.6,12.3-2.1h0.1
	l1.3-7c-4.8,0.6-9.8,1.4-14.8,2.4c-1.6,0.3-3.2,0.6-4.9,1h-0.3l-4.5,1h-0.3c-3,0.7-5.9,1.4-8.8,2.2c-5.5,1.4-11,3.1-16.9,5.1l0,0
	c0.2,1.2,0.5,2.5,0.8,3.7l0.2,0.9c0.2,0.8,0.4,1.6,0.6,2.5c5.2-1.9,10.9-3.7,16.7-5.3L65.4,324.7z"/>
<path class="st1" d="M75.5,324.7l-0.5,0.1c-4.5,1-9,2.1-13.4,3.4c-5.7,1.6-11.3,3.4-16.5,5.3l0,0c0.5,2,1,4,1.6,6l0.2-0.1
	c14.1-5.1,28.7-8.8,43.6-11l0,0l1.2-6.7c-3.8,0.6-7.8,1.3-11.8,2.1L75.5,324.7z"/>
<path class="st1" d="M57.8,307.5l-13.3-73.4h-0.1c-5.3,25.8-6.4,52.3-3.3,78.4C46.4,310.7,52,309,57.8,307.5L57.8,307.5z"/>
<path class="st1" d="M123.6,299l-4.5-22.3l-4.4,22.3c1.4,0,2.9,0,4.4,0S122.1,299,123.6,299z"/>
<path class="st1" d="M125.6,308.3c-0.2-1-1.2-5.9-1.5-6.9l0,0c-1.5,0-3.2,0-4.9,0s-3.3,0-4.9,0l0,0c-0.2,1-1.2,5.9-1.5,6.9
	c2.3,0,4.4-0.1,6.4-0.1C121.2,308.1,123.2,308.2,125.6,308.3z"/>
<polygon class="st1" points="112.7,308.4 112.7,308.5 112.7,308.5 "/>
<path class="st1" d="M119.2,317.2c2.4,0,5.1,0,8.2,0.2l-1.3-6.8h-0.2c-2.6-0.2-4.8-0.2-6.7-0.2c-2,0-4.2,0-6.8,0.1h-0.1l-1.3,6.8
	l0,0C114.2,317.2,116.8,317.2,119.2,317.2z"/>
<path class="st1" d="M129.2,326.6l-1.3-6.8h-0.1c-3.3-0.2-6-0.2-8.6-0.2s-5.3,0-8.6,0.2l0,0l-1.3,6.8c3.6-0.2,6.9-0.3,9.9-0.3
	S125.6,326.4,129.2,326.6z"/>
<path class="st1" d="M129.6,328.9c-3.7-0.2-7.1-0.3-10.4-0.3c-3.3,0-6.7,0.1-10.4,0.3l0,0L93,407.2c8.2,5.7,17,10.3,26.2,13.9
	c9.3-3.6,18.1-8.2,26.2-13.9L129.6,328.9L129.6,328.9z M113.6,399.4c-2.8,0-9.8-2.7-10.4-13.6c-0.4-8,1.9-10.1,1.9-10.1l4.3,7.8
	c0,11.2,8.1,11.5,8.1,11.5c0.3,2.2-1.2,4.1-3.4,4.4C114,399.5,113.8,399.5,113.6,399.4L113.6,399.4z M120.1,402.6h-2.1V391
	c-1.1-0.5-3.4-1.6-3.4-6c0.1-3.7-0.3-7.5-1.3-11.1c-0.7-2.5-4.9-5.1-4.9-5.1c4.2-4.7,7.9,1.6,7.8,0.9c-0.1-1.8,0.3-3.6,1-5.3
	c0.5-1,1.1-2,1.8-2.9c0.7,0.9,1.3,1.9,1.8,2.9c0.7,1.7,1.1,3.5,1,5.3c-0.2,0.8,3.5-5.6,7.8-0.9c0,0-4.2,2.6-4.9,5.1
	c-1,3.6-1.4,7.4-1.3,11.1c0,4.7-2.7,5.7-3.6,6.1L120.1,402.6z M135.1,385.9c-0.6,10.9-7.6,13.6-10.4,13.6c-2.2,0-3.9-1.7-4-3.9
	c0-0.2,0-0.4,0-0.6c0,0,8.1-0.2,8.1-11.5l4.3-7.8C133.2,375.8,135.5,377.9,135.1,385.9z"/>
<path class="st1" d="M178.5,318.9c-2.9-0.8-5.9-1.5-8.8-2.2l-0.4-0.1l-4.1-0.9l-0.8-0.2l-4.7-0.9c-5-1-10.1-1.8-14.9-2.4h-0.1l1.3,7
	h0.2c3.9,0.6,7.9,1.2,12,2.1h0.2c6.2,1.2,12.5,2.8,18.7,4.5c5.6,1.6,11.1,3.3,16.3,5.2l0.3,0.1c0.6-2.4,1.1-4.8,1.5-7.2l-0.3-0.1
	C189.9,322.1,184.2,320.4,178.5,318.9z"/>
<path class="st1" d="M176.9,328.2L176.9,328.2L176.9,328.2l-4.2-1.2h-0.1l-4.5-1.1c-3.3-0.8-6.5-1.5-9.7-2.2
	c-3.9-0.8-7.8-1.5-11.6-2h-0.1l1.4,6.8l0,0c2.7,0.4,5.5,0.9,8.8,1.5h0.3l1.4,0.3l1.2,0.2l0.8,0.2c1.5,0.3,3,0.7,4.7,1l1.3,0.3
	c1.7,0.4,3.3,0.8,4.7,1.1l0.5,0.1l3.3,0.9l0.8,0.2c5.4,1.5,10.6,3.3,15.5,5l0.3,0.1c0.6-2,1.1-4,1.6-6.1l-0.4-0.1
	C187.8,331.5,182.4,329.8,176.9,328.2z"/>
<path class="st1" d="M148.6,330.9l4.5,23.6l3.7-22.2l0,0C153.9,331.8,151.3,331.3,148.6,330.9z"/>
<path class="st1" d="M175.4,336.7l-9.5,52.1c11.6-13.7,20.2-29.7,25.2-46.9l0,0C186.1,340,180.8,338.3,175.4,336.7z"/>
<path class="st1" d="M197.3,312.7c3.1-26.2,2-52.7-3.3-78.5l0,0l-13.3,73.5l0,0C186.4,309.2,192,310.9,197.3,312.7z"/>
<path class="st1" d="M161.7,303.3l12.9-75.8c-15.6-3.4-31.4-5.7-47.3-6.8l15.4,79.7l0,0C148.9,301,155.3,302,161.7,303.3z
	 M141.2,253.2l2.8-1.6l-6.8-3.9l1.1-0.4l-2.7-4.9l5.6-0.1l-0.2-1.2l7,4v-8l0.9,0.8l2.8-4.8l2.8,4.8l0.9-0.8v8l6.9-4l-0.2,1.2
	l5.6,0.1l-2.7,4.9l1.1,0.4l-6.8,3.9l2.8,1.6l-1.1,0.4l2.7,4.9l-5.6,0.1l0.2,1.2l-5.3-3v10.3h-2.5v-10.4l-5.3,3l0.2-1.2l-5.6-0.1
	l2.7-4.9L141.2,253.2z"/>
<path class="st1" d="M180.2,309.9l-4.1-1.1h-0.4c-4.7-1.2-9.5-2.2-14.2-3.2c-6.2-1.3-12.4-2.2-18.3-2.9c0.1,1,1,6,1.2,7.1l0,0
	c5.1,0.6,10.3,1.5,15.5,2.5h0.2c1.5,0.3,3,0.6,4.6,0.9l0.9,0.2l4.3,1h0.1l4.3,1l1.1,0.3l3.1,0.8h0.1h0.3h0.1
	c5.7,1.5,11.3,3.2,16.5,4.9h0.2c0.4-2.2,0.7-4.4,1-6.6h-0.2C191.4,313.1,185.9,311.5,180.2,309.9z"/>
<polygon class="st2" points="44.9,333.3 44.9,333.3 44.9,333.3 "/>
<path class="st2" d="M123.6,299c-1.5,0-3,0-4.5,0s-2.9,0-4.4,0l-0.5,2.4l0,0c1.6,0,3.3,0,4.9,0c1.6,0,3.3,0,4.9,0l0,0
	C124.1,301.3,123.6,299,123.6,299z"/>
<path class="st2" d="M95.7,300.3c-6.1,0.7-12.5,1.6-19,2.9l0,0c-6.3,1.2-12.7,2.7-18.9,4.3l0,0c-5.7,1.5-11.3,3.3-16.7,5
	c0,0,0,0.1,0,0.2c0.1,0.6,0.2,1.3,0.2,1.9l0,0v0.2h0.1c5.3-1.8,10.9-3.5,16.7-5c6.2-1.6,12.5-3.1,18.8-4.3
	c6.3-1.2,12.4-2.1,18.3-2.8L95.7,300.3L95.7,300.3z"/>
<path class="st2" d="M41.1,312.8L41.1,312.8l0.3,1.9l0,0C41.3,314,41.2,313.4,41.1,312.8z"/>
<path class="st2" d="M180.7,307.6L180.7,307.6c-6.2-1.6-12.6-3.1-18.9-4.4l0,0c-6.4-1.2-12.8-2.2-19-2.9l0,0v0.2l0.4,2
	c0,0.1,0,0.1,0,0.2c5.9,0.7,12,1.6,18.2,2.9c4.7,0.9,9.5,2,14.2,3.2l0.4,0.1l4.1,1c5.7,1.5,11.3,3.3,16.6,5h0.2c0-0.3,0.1-0.6,0.1-1
	c0-0.3,0.1-0.8,0.1-1.2v-0.2C192,310.9,186.4,309.2,180.7,307.6z"/>
<path class="st2" d="M90.3,328.4c-14.9,2.2-29.5,5.8-43.6,11l-0.2,0.1l0.7,2.3l0,0c3.3-1.2,8.8-3.1,15.8-5.1l0,0
	c6.1-1.6,12.3-3.2,18.5-4.3l0,0c2.9-0.5,5.6-1,8.2-1.4L90.3,328.4L90.3,328.4z"/>
<path class="st2" d="M191.5,339.4c-4.9-1.8-10.1-3.5-15.5-5l-0.8-0.2l-3.3-0.9l-0.5-0.1c-1.4-0.4-2.9-0.7-4.7-1.1l-1.3-0.2
	c-1.6-0.4-3.3-0.7-4.7-1l-0.8-0.2l-1.2-0.2l-1.4-0.3H157c-3.3-0.6-6.1-1.1-8.8-1.5l0,0v0.2l0.4,2v0.2c2.7,0.4,5.4,0.9,8.2,1.4l0,0
	c6.2,1.2,12.5,2.7,18.5,4.4l0,0c5.4,1.5,10.7,3.3,15.7,5.1l0,0v-0.2c0.2-0.6,0.4-1.2,0.6-1.9v-0.2L191.5,339.4z"/>
<path class="st2" d="M191.2,341.6l0.6-1.9l0,0C191.6,340.4,191.4,341,191.2,341.6z"/>
<path class="st2" d="M129.2,326.6c-3.6-0.2-6.9-0.3-10.1-0.3c-3.2,0-6.3,0.1-9.9,0.3l-0.4,2.4l0,0c3.7-0.2,7.1-0.3,10.4-0.3
	s6.7,0.1,10.4,0.3l0,0L129.2,326.6z"/>
<polygon class="st2" points="129.2,326.8 129.6,328.6 129.2,326.8 "/>
<path class="st2" d="M125.6,308.3c-2.3,0-4.4-0.1-6.4-0.1c-2,0-4.1,0-6.4,0.1l-0.5,2.4h0.1c2.6-0.1,4.7-0.1,6.8-0.1
	c2,0,4.1,0,6.7,0.1h0.2L125.6,308.3z"/>
<path class="st2" d="M93.9,309.8c-4.9,0.6-10.2,1.4-15.4,2.4l0,0h-0.2l-4.6,0.9l-0.9,0.2h-0.2l-3.7,0.8l-0.7,0.2
	c-2.8,0.6-5.7,1.3-8.5,2.1h-0.2c-5.8,1.5-11.6,3.3-16.9,5v0.2l0,0l0.3,2l0,0v0.2l0,0c5.9-2,11.5-3.6,16.9-5.1
	c2.9-0.8,5.8-1.5,8.8-2.2h0.3l4.5-1h0.3c1.6-0.4,3.3-0.7,4.9-1c5-1,10-1.8,14.8-2.4v-0.2l0,0l0.4-2l0,0v-0.2L93.9,309.8z"/>
<polygon class="st2" points="93.9,310 93.9,310 93.5,312 93.5,312 93.9,310 "/>
<path class="st2" d="M42.4,321.8c0.1,0.6,0.2,1.3,0.4,2l0,0L42.4,321.8L42.4,321.8z"/>
<polygon class="st2" points="42.9,323.7 42.9,323.7 42.9,323.7 "/>
<path class="st2" d="M195.7,321.6c-5.2-1.8-10.8-3.4-16.5-4.9H179h-0.3h-0.1l-3.1-0.8l-1.1-0.3l-4.3-1h-0.1l-4.3-1l-0.9-0.2
	c-1.6-0.3-3.2-0.7-4.6-0.9H160c-5.3-1-10.5-1.8-15.5-2.5l0,0v0.2l0.4,1.9v0.2h0.1c4.9,0.6,9.8,1.4,14.9,2.4l4.7,0.9l0.8,0.2l4.1,0.9
	l0.4,0.1c2.9,0.7,5.9,1.4,8.8,2.2c5.7,1.5,11.3,3.2,16.7,4.9l0.3,0.1v-0.2c0.1-0.6,0.2-1.3,0.3-1.9L195.7,321.6L195.7,321.6z"/>
<path class="st2" d="M195.6,323.8l0.3-1.9C195.8,322.5,195.7,323.2,195.6,323.8L195.6,323.8z"/>
<path class="st2" d="M127.4,317.4c-3.1-0.1-5.8-0.2-8.2-0.2c-2.4,0-5,0-8.2,0.2l0,0v0.2l-0.4,2v0.2l0,0c3.3-0.2,6.1-0.2,8.6-0.2
	c2.6,0,5.3,0,8.6,0.2h0.1L127.4,317.4z"/>
<path class="st2" d="M92,319.2c-4,0.6-8.1,1.3-12.3,2.1c-1.5,0.3-3.1,0.6-4.8,1h-0.3c-1.5,0.3-3,0.7-4.5,1h-0.3l-4.3,1.1h-0.2
	l-4.2,1.1c-5.7,1.6-11.5,3.4-16.7,5.3c0.1,0.7,0.3,1.3,0.5,2v0.1v0.2l0,0c5.3-1.9,10.8-3.7,16.5-5.3c4.4-1.2,9-2.4,13.4-3.4l0.5-0.1
	l4.3-0.9c4-0.8,8-1.5,11.8-2.1L92,319L92,319.2z"/>
<polygon class="st2" points="44.9,333.3 44.9,333.3 44.9,333.3 "/>
<path class="st2" d="M44.9,333.1v0.1l0,0V333.1z"/>
<path class="st2" d="M193.7,331.1c-5.2-1.9-10.7-3.6-16.3-5.2c-6.2-1.8-12.5-3.3-18.7-4.5h-0.2c-4.2-0.8-8.1-1.5-12-2.1h-0.2v0.2
	l0.4,2v0.2h0.1c3.8,0.6,7.6,1.2,11.6,2c3.3,0.7,6.6,1.4,9.7,2.2l4.5,1.1h0.1l4.2,1.2l0,0l0,0c5.5,1.6,10.9,3.3,16.1,5.2l0.4,0.1
	v-0.2c0.1-0.6,0.3-1.3,0.4-1.9v-0.2L193.7,331.1z"/>
<path class="st2" d="M120.8,395.1c-0.3,2.1,1.2,4.1,3.4,4.4c0.2,0,0.4,0,0.6,0c2.8,0,9.8-2.7,10.4-13.6c0.4-8-1.9-10.1-1.9-10.1
	l-4.3,7.8C128.9,394.9,120.8,395.1,120.8,395.1z M109.4,383.6l-4.3-7.8c0,0-2.3,2.1-2,10.1c0.6,10.9,7.6,13.6,10.4,13.6
	c2.2,0,4-1.7,4-3.9c0-0.2,0-0.3,0-0.5C117.4,395.1,109.4,394.9,109.4,383.6z"/>
<path class="st2" d="M98.5,254.7c0,0,2.7-2.6,2.7-5.1c0-5.7-3-5.3-4.4-5.3c-3,0-7.2,4.7-7.2,4.7c0.5-1,1.2-2.9,1.5-3.4
	c0.1-0.2,0.2-0.5,0.3-0.8c0.7-1.7,0.7-3.5,0.1-5.2c-0.7-2.2-2.2-3.1-3.4-4.6c-1.2-1.5-1.8-2.1-1.8-2.1s-0.5,0.5-1.8,2.2
	c-1.3,1.6-2.7,2.5-3.4,4.6c-0.6,1.7-0.5,3.5,0.1,5.2c0.1,0.3,0.2,0.6,0.3,0.8c0.2,0.6,1,2.4,1.5,3.4c0,0-4.1-4.7-7.2-4.7
	c-1.3,0-4.4-0.4-4.4,5.3c0,2.5,2.7,5.1,2.7,5.1s0.4-2,3.4-2c2,0,3.4,2.1,3.4,4.6c0,2-0.4,3.7-0.9,3.9c1,0.7,1.9,1.4,2.8,2.1
	c0.6,0.6,3.4,4,3.4,4s2.8-3.3,3.4-4c0.9-0.8,1.8-1.5,2.8-2.1c-0.5-0.2-0.9-1.9-0.9-3.9c0-2.4,1.4-4.6,3.4-4.6
	C98.1,252.7,98.5,254.7,98.5,254.7z M123.6,385c-0.1-3.7,0.3-7.5,1.3-11.1c0.7-2.5,4.9-5.1,4.9-5.1c-4.2-4.7-7.9,1.6-7.8,0.9
	c0.1-1.8-0.3-3.6-1-5.3c-0.5-1-1.1-2-1.8-2.9c-0.7,0.9-1.3,1.9-1.8,2.9c-0.7,1.7-1.1,3.5-1,5.3c0.1,0.8-3.5-5.6-7.8-0.9
	c0,0,4.2,2.6,4.9,5.1c1,3.6,1.4,7.4,1.3,11.1c0,4.4,2.3,5.5,3.4,6v11.6h2v-11.5C121,390.8,123.7,389.7,123.6,385z M145.3,258.6
	l-0.2,1.2l5.3-3V267h1.2h0.1h1.2v-10.3l5.3,3l-0.2-1.2l5.6-0.1l-2.7-4.9l1.1-0.4l-2.8-1.6l6.8-4l-1.1-0.4l2.7-4.9l-5.6-0.1l0.2-1.2
	l-7,4v-8l-0.9,0.8l-2.8-4.8l-2.8,4.8l-0.9-0.8v8l-7-4l0.2,1.2l-5.6,0.1l2.7,4.9l-1.1,0.4l6.8,4l-2.8,1.6l1.1,0.4l-2.7,4.9
	L145.3,258.6z"/>
<path class="st3" d="M291.7,296.8c0,9.1-5.7,15-14.5,15s-14.4-5.9-14.4-15v-42.5h-8.4v43.1c0,12.8,9.6,22.2,22.8,22.2
	s22.8-9.4,22.8-22.2v-43.1h-8.3V296.8z M320.7,291.3c0-6.9,3.6-10.8,10-10.8s9.8,3.8,9.8,10.8v27.6h8v-28.7
	c0.3-4.7-1.5-9.3-4.8-12.7c-3.2-3-7.4-4.5-11.7-4.3c-4.2-0.1-8.2,1.4-11.4,4.1v-3.6h-8v45.2h8L320.7,291.3z M360.4,254.2h8.8v8.8
	h-8.8V254.2z M360.8,273.7h8v45.2h-8V273.7z M399.3,318.9l16.6-45.2h-8.7L395.9,307l-11.3-33.2H376l16.5,45.2H399.3z M438,273.2
	c-11.7,0-18.7,8.6-18.7,23.1c0,14.9,7.1,23.1,19.8,23.1c6.3,0.3,12.3-2.3,16.5-7l0.6-0.6l-5.6-4.9l-0.5,0.5c-2.7,3.2-6.7,5-10.9,4.8
	c-7.5,0-11.8-4.8-12-13.4h29.4v-3.8C456.7,281.6,449.5,273.2,438,273.2z M427.4,292.4c0-2.1,0.4-4.2,1.2-6.1
	c2.4-5.2,8.5-7.5,13.7-5.1c2.3,1,4.1,2.8,5.1,5.1c0.8,1.9,1.2,4,1.2,6.1L427.4,292.4z M486.5,273.2c-4.2-0.1-8.3,1.5-11.4,4.4v-3.8
	h-7.9v45.2h8v-27.5c0-6.4,4-10.9,9.6-10.9c2.7-0.2,5.2,0.9,6.9,3l0.6,0.6l5.8-6l-0.6-0.6C494.7,274.5,490.6,273,486.5,273.2z
	 M536.3,305.3c0-10.1-7.8-12.1-13.6-12.6l-7-0.6c-6.1-0.5-6.9-3.1-6.9-5.6c0-4.1,3.2-6.3,8.9-6.3c4-0.2,7.9,1,11.1,3.3l0.6,0.4
	l5.3-5.3l-0.7-0.6c-3.9-3.2-9.5-4.9-16.2-4.9c-10.1,0-16.8,5.4-16.8,13.6c0,7.5,4.6,11.7,13.8,12.5l7.2,0.6c5.8,0.5,6.6,3.3,6.6,5.6
	c0,6-6.8,6.9-10.8,6.9c-5.6,0-9.8-1.6-13-4.8l-0.6-0.6l-5.4,5.4l0.6,0.6c4.7,4.5,10.4,6.6,18.4,6.6
	C529,319.4,536.3,313.9,536.3,305.3z M544.6,254.2h8.8v8.8h-8.8V254.2z M545,273.7h8v45.2h-8V273.7z M567.2,306.4
	c0,7.6,4.7,12.5,12,12.5h5.3v-7.1h-4.2c-3.4,0-5.1-1.8-5.1-5.6v-25.7h9.3v-6.6h-9.3v-13.6h-8V274h-5.5v6.6h5.5V306.4z M609.8,328.9
	l20.2-55.2h-8.7L610,307l-11.3-33.2H590l16,43.5l-3,8.2c-1.3,3.7-2.4,4.9-6.4,4.9h-2.8v7.3h3.6c3.3,0.1,6.6-1,9.1-3.3
	C608,332.8,609.1,331,609.8,328.9z M266.4,369.4c-3.3-0.1-6.5,1.2-8.9,3.6c-3.3,3.4-3.8,8-3.8,12.2s0.4,8.7,3.8,12.2
	c5,4.7,12.8,4.7,17.8,0c3.3-3.4,3.8-8,3.8-12.1s-0.4-8.8-3.8-12.2C272.9,370.6,269.7,369.3,266.4,369.4z M271.1,393.4
	c-1.3,1.2-3,1.9-4.7,1.9c-1.7,0-3.4-0.7-4.7-1.9c-1.9-1.9-2.1-5.1-2.1-8.4c0-3.3,0.3-6.6,2.1-8.4c1.2-1.2,2.9-1.9,4.7-1.9
	c1.8,0,3.5,0.6,4.7,1.9c1.9,1.9,2.1,5.3,2.1,8.4C273.2,388.1,273,391.5,271.1,393.4L271.1,393.4z M286.5,365.2v4.7h-3.7v4.9h3.7
	v25.6h5.9v-25.7h6.2v-4.9h-6.2v-4.6c0-2.4,1-3.4,3.1-3.4h3.1v-5.3h-3.9C289.8,356.6,286.5,360,286.5,365.2z M365.1,384.1l-13.2-48.3
	h-7.3l-13.2,48.3l-11.7-48.3h-8.9l16.5,64.6h7.5l13.3-48.2l13.4,48.2h7.5l16.5-64.6h-8.9L365.1,384.1z M392.3,355.2h8v45.2h-8V355.2
	z M391.9,335.6h8.8v8.8h-8.8V335.6z M433.2,354.7c-4.2-0.1-8.2,1.4-11.4,4.1v-3.6h-8v45.2h8v-27.7c0-6.9,3.6-10.8,10-10.8
	c6.3,0,9.8,3.8,9.8,10.8v27.6h8v-28.7c0.3-4.7-1.5-9.3-4.8-12.7C441.7,356.1,437.5,354.5,433.2,354.7z M488.5,358.9
	c-3-3-7.2-4.5-11.5-4.2c-4.1-0.1-8.1,1.3-11.2,4.1c-4.9,4.9-5.5,13.3-5.5,19.1c0,5.8,0.6,14.1,5.5,19.1c3.1,2.7,7.1,4.2,11.2,4.1
	c4.3,0.3,8.5-1.3,11.6-4.4v3.9h7.9v-64.7h-8L488.5,358.9z M478.5,393.6c-9,0-10.1-8-10.1-15.8s1.2-15.8,10.1-15.8
	s10.1,7.6,10.1,15.8C488.5,386,487.3,393.6,478.5,393.6L478.5,393.6z M529.4,374.2l-7-0.6c-6.1-0.5-6.9-3.1-6.9-5.6
	c0-4.1,3.2-6.3,8.9-6.3c4-0.2,7.9,1,11.1,3.3l0.6,0.4l5.3-5.3l-0.7-0.6c-3.9-3.2-9.5-4.9-16.2-4.9c-10.1,0-16.8,5.4-16.8,13.6
	c0,7.5,4.6,11.7,13.8,12.5l7.2,0.6c5.8,0.5,6.6,3.3,6.6,5.6c0,6-6.8,6.9-10.8,6.9c-5.6,0-9.8-1.6-13-4.8l-0.6-0.6l-5.4,5.4l0.6,0.6
	c4.7,4.5,10.4,6.6,18.4,6.6c11.2,0,18.5-5.5,18.5-14.1C543,376.7,535.3,374.8,529.4,374.2z M569.3,354.7c-4.9-0.1-9.6,1.8-13.1,5.2
	c-4.9,4.9-5.5,11.9-5.5,17.9s0.7,12.9,5.5,17.9c7.3,6.9,18.8,6.9,26.1,0c4.9-4.9,5.5-11.9,5.5-17.9s-0.7-12.9-5.5-17.9
	C578.8,356.5,574.1,354.6,569.3,354.7z M576.6,390.8c-2,1.9-4.6,3-7.4,3c-2.7,0-5.4-1-7.3-3c-2.9-2.9-3.3-7.9-3.3-12.9
	s0.4-10,3.3-12.9c1.9-1.9,4.6-3,7.3-3c2.8,0,5.4,1,7.4,3c3,3,3.3,8.2,3.3,12.9c0,4.7-0.3,9.8-3.3,12.7V390.8z M629.5,359
	c-2.9-3-6.9-4.5-11.1-4.3c-4.2-0.1-8.3,1.5-11.4,4.4v-3.9h-8v45.2h8v-27.6c0-6.4,4-10.9,9.6-10.9c2.7-0.2,5.2,0.9,6.9,3l0.6,0.6
	l5.8-6L629.5,359z"/>
</svg>
